<svg width="180" height="220" viewBox="0 0 180 220" fill="none" xmlns="http://www.w3.org/2000/svg">
  <ellipse cx="90" cy="34" rx="21" ry="23" fill="#4C2D1F"/>
  <ellipse cx="83" cy="34" rx="2.5" ry="3.2" fill="#111827"/>
  <ellipse cx="98" cy="34" rx="2.5" ry="3.2" fill="#111827"/>
  <path d="M84 45C88 48 93 48 97 45" stroke="#2B160F" stroke-width="2" stroke-linecap="round"/>
  <path d="M81 56C82 50 85 46 90 46C95 46 98 50 99 56V70H81V56Z" fill="#4C2D1F"/>
  <path d="M71 58L56 108" stroke="#4C2D1F" stroke-width="14" stroke-linecap="round"/>
  <path d="M107 58L124 98" stroke="#4C2D1F" stroke-width="14" stroke-linecap="round"/>
  <circle cx="56" cy="108" r="7" fill="#4C2D1F"/>
  <circle cx="124" cy="98" r="7" fill="#4C2D1F"/>
  <path d="M62 84C62 72.9543 70.9543 64 82 64H98C109.046 64 118 72.9543 118 84V138H62V84Z" fill="#B91C1C"/>
  <path d="M66 84C66 75.7157 72.7157 69 81 69H99C107.284 69 114 75.7157 114 84V130H66V84Z" fill="#D62828"/>
  <path d="M76 70H104L99 84H81L76 70Z" fill="#F8FAFC"/>
  <path d="M62 84L76 104L90 84L104 104L118 84" stroke="#111827" stroke-width="3" stroke-linecap="round"/>
  <path d="M88 88H92V126H88V88Z" fill="#111827"/>
  <path d="M78 98H102" stroke="#111827" stroke-width="2"/>
  <text x="90" y="122" text-anchor="middle" font-family="Arial Black, Arial, sans-serif" font-size="24" fill="#F9FAFB">23</text>
  <path d="M76 138L70 196" stroke="#F5F5F5" stroke-width="16" stroke-linecap="round"/>
  <path d="M104 138L110 196" stroke="#F5F5F5" stroke-width="16" stroke-linecap="round"/>
  <path d="M62 194H78" stroke="#D1D5DB" stroke-width="10" stroke-linecap="round"/>
  <path d="M102 194H118" stroke="#D1D5DB" stroke-width="10" stroke-linecap="round"/>
</svg>
