<svg width="220" height="260" viewBox="0 0 220 260" fill="none" xmlns="http://www.w3.org/2000/svg">
  <rect width="220" height="260" rx="28" fill="#0B1723"/>
  <ellipse cx="110" cy="238" rx="72" ry="12" fill="#07111A"/>
  <ellipse cx="110" cy="58" rx="23" ry="25" fill="#4C2D1F"/>
  <ellipse cx="102" cy="57" rx="2.6" ry="3.2" fill="#111827"/>
  <ellipse cx="118" cy="57" rx="2.6" ry="3.2" fill="#111827"/>
  <path d="M103 69C107 72 113 72 117 69" stroke="#2B160F" stroke-width="2" stroke-linecap="round"/>
  <path d="M100 82C101 74 105 69 110 69C115 69 119 74 120 82V98H100V82Z" fill="#4C2D1F"/>
  <path d="M89 72L78 122" stroke="#4C2D1F" stroke-width="14" stroke-linecap="round"/>
  <path d="M131 72L142 122" stroke="#4C2D1F" stroke-width="14" stroke-linecap="round"/>
  <circle cx="78" cy="122" r="7" fill="#4C2D1F"/>
  <circle cx="142" cy="122" r="7" fill="#4C2D1F"/>
  <path d="M82 108C82 91.4315 95.4315 78 112 78H108C124.569 78 138 91.4315 138 108V164H82V108Z" fill="#B91C1C"/>
  <path d="M86 108C86 94.1929 97.1929 83 111 83C124.807 83 136 94.1929 136 108V154H86V108Z" fill="#D62828"/>
  <path d="M96 88H124L117 103H103L96 88Z" fill="#F8FAFC"/>
  <path d="M82 108L98 130L110 108L122 130L138 108" stroke="#111827" stroke-width="3" stroke-linecap="round"/>
  <path d="M108 112H112V150H108V112Z" fill="#111827"/>
  <path d="M98 122H122" stroke="#111827" stroke-width="2"/>
  <text x="110" y="144" text-anchor="middle" font-family="Arial Black, Arial, sans-serif" font-size="28" fill="#F9FAFB">23</text>
  <path d="M95 164L89 226" stroke="#F5F5F5" stroke-width="18" stroke-linecap="round"/>
  <path d="M125 164L131 226" stroke="#F5F5F5" stroke-width="18" stroke-linecap="round"/>
  <path d="M85 226H103" stroke="#D1D5DB" stroke-width="10" stroke-linecap="round"/>
  <path d="M117 226H135" stroke="#D1D5DB" stroke-width="10" stroke-linecap="round"/>
  <circle cx="165" cy="130" r="22" fill="#D97706"/>
  <path d="M165 108V152" stroke="#7C2D12" stroke-width="3"/>
  <path d="M143 130H187" stroke="#7C2D12" stroke-width="3"/>
  <path d="M151 116C157 124 157 136 151 144" stroke="#7C2D12" stroke-width="3"/>
  <path d="M179 116C173 124 173 136 179 144" stroke="#7C2D12" stroke-width="3"/>
</svg>
