<svg width="220" height="260" viewBox="0 0 220 260" fill="none" xmlns="http://www.w3.org/2000/svg">
  <rect width="220" height="260" rx="28" fill="#0B1723"/>
  <ellipse cx="110" cy="238" rx="72" ry="12" fill="#07111A"/>
  <circle cx="110" cy="56" r="22" fill="#B97352"/>
  <path d="M86 48C92 24 128 24 134 48V82H86V48Z" fill="#131313"/>
  <path d="M88 78C80 92 82 114 88 128" stroke="#131313" stroke-width="12" stroke-linecap="round"/>
  <path d="M132 78C140 92 138 114 132 128" stroke="#131313" stroke-width="12" stroke-linecap="round"/>
  <rect x="95" y="76" width="30" height="40" rx="14" fill="#B97352"/>
  <rect x="72" y="88" width="18" height="72" rx="9" fill="#B97352"/>
  <rect x="130" y="84" width="16" height="70" rx="8" fill="#B97352"/>
  <path d="M78 102C78 85.4315 91.4315 72 108 72H112C128.569 72 142 85.4315 142 102V156H78V102Z" fill="#F4F5F7"/>
  <path d="M78 100C78 83.4315 91.4315 70 108 70H112C128.569 70 142 83.4315 142 100V136H78V100Z" fill="#13C7B9"/>
  <rect x="88" y="158" width="18" height="72" rx="9" fill="#E5E7EB"/>
  <rect x="114" y="152" width="18" height="78" rx="9" fill="#E5E7EB"/>
  <rect x="86" y="224" width="22" height="10" rx="5" fill="#D6D6D6"/>
  <rect x="114" y="224" width="22" height="10" rx="5" fill="#D6D6D6"/>
  <path d="M146 104L184 92" stroke="#60A5FA" stroke-width="8" stroke-linecap="round"/>
  <path d="M154 120L192 108" stroke="#DDF7FF" stroke-width="4" stroke-linecap="round" opacity="0.85"/>
</svg>
