<svg width="220" height="260" viewBox="0 0 220 260" fill="none" xmlns="http://www.w3.org/2000/svg">
  <rect width="220" height="260" rx="28" fill="#0B1723"/>
  <ellipse cx="110" cy="238" rx="72" ry="12" fill="#07111A"/>
  <ellipse cx="110" cy="60" rx="22" ry="24" fill="#B77453"/>
  <path d="M86 52C90 26 130 26 134 52V80H86V52Z" fill="#111111"/>
  <path d="M89 77C81 94 82 118 90 136" stroke="#111111" stroke-width="11" stroke-linecap="round"/>
  <path d="M131 77C139 94 138 118 130 136" stroke="#111111" stroke-width="11" stroke-linecap="round"/>
  <path d="M100 84C100 76.268 104.477 70 110 70C115.523 70 120 76.268 120 84V97H100V84Z" fill="#B77453"/>
  <path d="M88 93L75 136" stroke="#B77453" stroke-width="13" stroke-linecap="round"/>
  <path d="M131 90L145 128" stroke="#B77453" stroke-width="12" stroke-linecap="round"/>
  <path d="M86 97C86 82.6406 97.6406 71 112 71H108C122.359 71 134 82.6406 134 97V166H86V97Z" fill="#111111"/>
  <path d="M97 90H123L127 164H93L97 90Z" fill="#F3F4F6"/>
  <path d="M92 95H128" stroke="#D4AF37" stroke-width="4"/>
  <path d="M90 102V155" stroke="#D4AF37" stroke-width="4"/>
  <path d="M130 102V155" stroke="#D4AF37" stroke-width="4"/>
  <path d="M93 166L89 226" stroke="#0F0F10" stroke-width="16" stroke-linecap="round"/>
  <path d="M124 166L129 226" stroke="#0F0F10" stroke-width="16" stroke-linecap="round"/>
  <path d="M84 225H102" stroke="#FAFAFA" stroke-width="10" stroke-linecap="round"/>
  <path d="M120 225H138" stroke="#FAFAFA" stroke-width="10" stroke-linecap="round"/>
  <path d="M145 106L186 93" stroke="#60A5FA" stroke-width="8" stroke-linecap="round"/>
  <path d="M152 121L193 108" stroke="#E0F2FE" stroke-width="4" stroke-linecap="round"/>
  <path d="M153 138L181 161" stroke="#F8FAFC" stroke-width="5" stroke-linecap="round"/>
</svg>
